<?xml version="1.0" encoding="UTF-8"?>
<svg id="Layer_2" data-name="Layer 2" xmlns="http://www.w3.org/2000/svg" viewBox="0 0 194 40">
  <defs>
    <style>
      .cls-1 {
      fill: #fff;
      }

      .cls-2 {
      fill: #03c75a;
      }
    </style>
  </defs>
  <g id="Layer_2-2" data-name="Layer 2">
    <g>
      <rect class="cls-2" width="194" height="40" rx="3" ry="3" />
      <polygon class="cls-1"
        points="34.21 20.42 29.72 14 26 14 26 26 29.9 26 29.9 19.58 34.38 26 38.1 26 38.1 14 34.21 14 34.21 20.42" />
      <g>
        <path class="cls-1" d="M51.92,14.51v8.88h5.29v1.12h-6.62v-10h1.33Z" />
        <path class="cls-1"
          d="M58.01,19.4c.15-.46.37-.86.67-1.2s.67-.61,1.11-.8c.44-.2.94-.29,1.51-.29s1.08.1,1.52.29c.43.2.8.46,1.1.8s.52.74.67,1.2.22.96.22,1.49-.08,1.03-.22,1.48c-.15.46-.37.86-.67,1.2s-.67.61-1.1.8c-.43.19-.94.29-1.52.29s-1.07-.1-1.51-.29-.81-.46-1.11-.8-.52-.74-.67-1.2c-.15-.46-.22-.95-.22-1.48s.07-1.03.22-1.49ZM59.22,22.06c.12.34.28.62.48.85s.45.4.72.53.57.18.88.18.6-.06.88-.18.52-.3.72-.53c.21-.23.37-.51.48-.85.12-.34.17-.73.17-1.17s-.06-.83-.17-1.17c-.12-.34-.28-.63-.48-.86-.21-.23-.45-.41-.72-.53s-.57-.18-.88-.18-.6.06-.88.18-.52.3-.72.53-.37.52-.48.86c-.12.34-.17.73-.17,1.17s.06.83.17,1.17Z" />
        <path class="cls-1"
          d="M71.65,26.55c-.54.59-1.39.88-2.55.88-.34,0-.68-.04-1.03-.11-.35-.08-.67-.2-.95-.36-.28-.17-.52-.39-.71-.66-.19-.27-.29-.6-.31-.99h1.19c0,.21.08.4.2.55.13.15.28.27.46.36.18.09.38.16.59.2s.42.06.62.06c.39,0,.72-.07.99-.2.27-.14.49-.32.67-.56.18-.24.31-.52.38-.86s.12-.71.12-1.11v-.48h-.03c-.21.45-.52.78-.93.99-.42.21-.86.32-1.32.32-.54,0-1.01-.1-1.41-.29s-.74-.46-1.01-.79c-.27-.33-.47-.72-.61-1.16-.13-.44-.2-.91-.2-1.41,0-.43.06-.87.17-1.32.11-.45.3-.86.56-1.23.26-.37.61-.67,1.04-.91.43-.24.96-.36,1.58-.36.46,0,.88.1,1.26.3.38.2.68.5.9.9h.01v-1.04h1.12v6.62c0,1.19-.27,2.07-.81,2.66ZM70.13,23.29c.27-.16.5-.38.67-.64.17-.27.29-.57.37-.9.08-.34.12-.67.12-1.01,0-.32-.04-.63-.11-.94-.08-.31-.19-.58-.36-.83-.16-.25-.38-.45-.64-.59-.26-.15-.58-.22-.95-.22s-.71.07-.98.22c-.27.14-.49.34-.66.58-.17.24-.3.52-.38.84-.08.32-.12.65-.12.99,0,.33.03.65.1.98.07.33.18.62.34.89.16.27.37.48.63.64.26.16.59.25.98.25s.73-.08,1-.25Z" />
        <path class="cls-1"
          d="M78.21,15.96v-1.46h1.19v1.46h-1.19ZM79.4,17.27v7.24h-1.19v-7.24h1.19Z" />
        <path class="cls-1"
          d="M82.37,17.27v1.15h.03c.49-.88,1.28-1.32,2.35-1.32.48,0,.87.06,1.19.2s.57.31.77.55c.2.23.33.51.41.83.08.32.12.68.12,1.07v4.76h-1.19v-4.9c0-.45-.13-.8-.39-1.06-.26-.26-.62-.39-1.08-.39-.36,0-.68.06-.94.17-.27.11-.49.27-.67.48-.18.21-.31.45-.4.72-.09.28-.13.58-.13.9v4.09h-1.19v-7.24h1.12Z" />
        <path class="cls-1"
          d="M98.84,24.5l-1.47-5.75h-.03l-1.46,5.75h-1.29l-2.32-7.24h1.32l1.64,5.92h.03l1.46-5.92h1.3l1.51,5.92h.03l1.62-5.92h1.23l-2.31,7.24h-1.26Z" />
        <path class="cls-1"
          d="M103.61,15.96v-1.46h1.19v1.46h-1.19ZM104.8,17.27v7.24h-1.19v-7.24h1.19Z" />
        <path class="cls-1"
          d="M109.74,17.27v1.05h-1.44v4.49c0,.14.01.25.04.34.02.08.07.15.13.2.07.05.16.08.27.09.12.01.27.02.46.02h.55v1.05h-.91c-.31,0-.57-.02-.79-.06-.22-.04-.4-.12-.53-.23-.14-.11-.24-.27-.3-.48-.07-.21-.1-.48-.1-.81v-4.61h-1.23v-1.05h1.23v-2.17h1.19v2.17h1.44Z" />
        <path class="cls-1"
          d="M112.25,14.51v3.82h.03c.09-.22.22-.41.39-.57.17-.15.36-.28.57-.38.21-.1.43-.17.66-.22s.45-.07.67-.07c.48,0,.87.06,1.19.2s.57.31.77.55c.2.23.33.51.41.83.08.32.12.68.12,1.07v4.76h-1.19v-4.9c0-.45-.13-.8-.39-1.06-.26-.26-.62-.39-1.08-.39-.36,0-.68.06-.94.17-.27.11-.49.27-.67.48-.18.21-.31.45-.4.72-.09.28-.13.58-.13.9v4.09h-1.19v-10h1.19Z" />
        <path class="cls-1"
          d="M124.33,14.51l5.26,8.11h.03v-8.11h1.26v10h-1.46l-5.22-8.02h-.03v8.02h-1.26v-10h1.41Z" />
        <path class="cls-1"
          d="M137.22,14.51l3.91,10h-1.47l-1.09-3.01h-4.23l-1.12,3.01h-1.36l3.89-10h1.47ZM138.15,20.37l-1.67-4.66h-.03l-1.69,4.66h3.39Z" />
        <path class="cls-1"
          d="M143.89,24.5l-3.51-10h1.43l2.86,8.67h.03l2.88-8.67h1.39l-3.56,10h-1.51Z" />
        <path class="cls-1"
          d="M156.92,14.51v1.12h-5.57v3.18h5.19v1.12h-5.19v3.46h5.61v1.12h-6.94v-10h6.9Z" />
        <path class="cls-1"
          d="M163.28,14.51c.95,0,1.7.23,2.23.7.54.47.81,1.11.81,1.92,0,.61-.14,1.14-.41,1.6-.28.46-.72.77-1.32.94v.03c.29.06.53.15.71.28.18.13.33.29.43.47.11.18.19.38.24.61.05.22.09.46.12.7.02.24.03.49.04.74,0,.25.03.5.07.74.04.24.09.47.16.69.07.22.17.41.31.58h-1.48c-.09-.1-.16-.24-.19-.42-.03-.18-.05-.38-.06-.59,0-.22-.02-.46-.03-.71,0-.25-.04-.5-.08-.74-.04-.24-.08-.47-.14-.69-.06-.22-.14-.41-.27-.57-.12-.16-.28-.29-.48-.39-.2-.1-.46-.15-.78-.15h-3.25v4.27h-1.33v-10h4.7ZM163.56,19.04c.28-.05.52-.14.73-.27.21-.14.38-.32.5-.55.13-.23.19-.53.19-.89,0-.5-.14-.91-.42-1.23-.28-.32-.73-.48-1.36-.48h-3.3v3.49h2.77c.31,0,.6-.02.88-.07Z" />
      </g>
    </g>
  </g>
</svg>